<svg xmlns="http://www.w3.org/2000/svg" id="Layer_2" data-name="Layer 2" viewBox="0 0 321.67 313.65"><defs><style>      .cls-1 {        fill: #ff930f;      }      .cls-1, .cls-2, .cls-3 {        stroke-width: 0px;      }      .cls-2 {        fill: #ff501d;      }      .cls-3 {        fill: #ffb307;      }    </style></defs><g id="Layer_1-2" data-name="Layer 1"><path class="cls-2" d="m161.95,216.79h0c0-.11,0-.29-.01-.46v.46"></path><path class="cls-2" d="m320.71,87.48h0c-3.93-26.01-17.79-49.48-38.67-65.47C264.78,8.58,243.74.91,221.89.07c-24.67-.89-48.96,6.18-69.3,20.17-23.97,16.12-41.87,39.91-54.38,65.7h0c-.27.55-.53,1.1-.79,1.65-2.4,4.99-4.81,10.49-7.09,16.47-1.63,4.25-3.04,8.36-4.27,12.3h0c-.49,1.56-.95,3.1-1.39,4.61h0s-.05,0-.05,0c-5.09,17.68-8.57,35.79-10.41,54.1h.05s-.05,0-.05,0c-.24,2.09-.46,4.24-.66,6.42.7.12,1.41.2,2.11.3,1.75.25,3.5.44,5.26.55.08,0,.16.02.24.02h.03c8.4.72,17.27,1.24,26.55,1.5.76-8.77,1.93-19.52,3.52-28.04,1.66-9.04,3.84-17.97,6.54-26.75l-.05-.02h0c.22-.74.45-1.46.68-2.18.25-.79.49-1.59.74-2.38.15-.46.31-.91.46-1.36.36-1.08.72-2.16,1.11-3.24.13-.36.26-.71.39-1.07.43-1.17.86-2.34,1.31-3.5.11-.29.23-.57.34-.86.17-.43.34-.86.51-1.29.28-.7.56-1.4.85-2.1.04-.1.09-.21.14-.32.09-.22.18-.43.28-.65.44-1.03.87-2.05,1.32-3.04.04-.08.07-.16.11-.25.74-1.66,1.5-3.27,2.25-4.83.07-.14.13-.27.2-.41.75-1.54,1.5-3.04,2.26-4.49h0s.05.02.05.02h0s-.05-.03-.05-.03h0s.05,0,.05,0h0s0,0,0,0c10.62-20.92,25.99-40.18,46.52-52.08,16.58-9.73,36.13-13.08,55-9.42,19.51,4.09,36.39,16.2,46.51,33.37,7.91,13.53,10.73,29.44,7.96,44.87-2.43,14.63-9.68,28.04-20.58,38.1-8.64,8.13-18.52,14.82-29.27,19.83-13.96,6-29.02,8.76-43.99,10.92.3,1.57.58,3.21.85,4.89.64,3.99,1.2,8.23,1.6,12.73.11,1.24.2,2.45.28,3.65,0,.15.02.3.03.45.03.47.06.93.08,1.4.01.21.03.42.04.63.03.48.05.95.07,1.42,0,.18.02.35.02.54.03.58.04,1.15.06,1.72v.13c.01.36.02.7.03,1.06.04,1.34.06,2.66.06,3.95,0,.43,0,.87,0,1.29,13.52-1.78,26.88-4.59,39.97-8.4,16.4-5.17,31.66-13.39,45-24.24,16.86-13.29,30.28-31.37,36.39-52.07,4.19-14.39,5.31-29.49,3.3-44.34"></path><path class="cls-2" d="m106.93,217.19v-.58c-9.59-.39-18.76-1.01-27.47-1.81-2.26-.12-4.51-.31-6.76-.58.26,5.85.65,12.62,1.27,18.37.97,9.34,9.32,16.13,18.67,15.17,9.34-.97,16.13-9.32,15.17-18.67-.41-3.97-.68-7.95-.87-11.9"></path><path class="cls-1" d="m161.94,216.34c-.04-1.14-.11-3.46-.19-5.48-.04-.87-.07-1.73-.13-2.6,0-.1-.02-.2-.02-.3-.08-1.21-.17-2.42-.27-3.63-.02-.19-.03-.37-.05-.56-.11-1.21-.22-2.42-.35-3.62-.59-5.31-1.35-10.28-2.23-14.87-.06-.28-.13-.56-.2-.85-6.69.17-13.51.25-20.47.22-10.43-.04-20.54-.32-30.31-.8-9.28-.26-18.15-.78-26.54-1.5h-.03s-.08,0-.24-.02c-1.76-.11-3.51-.3-5.26-.55-.78-.1-1.52-.2-2.11-.3-6.3-1.07-12.4-3.1-18.08-6.01l-.17-.09-.17-.09c-.75-.4-1.49-.83-2.21-1.3-2.27-1.5-4.44-3.14-6.5-4.91-1.21-1.04-2.34-2.17-3.36-3.39-.19-.22-.38-.45-.56-.68-3.46-4.28-6.02-9.21-7.53-14.5v-.06c-.49-2.66-.73-5.36-.73-8.06,0,0,0-.02,0-.03.46-4.32,1.81-8.51,3.97-12.28l.05-.09c.44-.78.94-1.52,1.5-2.22l.33-.41c3.01-3.65,6.67-6.7,10.8-8.99h.04s.02-.01.02-.01c3.99-1.77,8.24-2.88,12.59-3.31,2.99-.28,5.99-.4,8.98-.35,4.54.29,9.07.85,13.55,1.66,1.24-3.93,2.65-8.04,4.27-12.3,2.28-5.98,4.69-11.48,7.09-16.47.26-.55.53-1.1.8-1.65h0c-1.49-.35-2.97-.68-4.47-.99-5.17-1.02-10.41-1.67-15.67-1.95-7.24-.57-14.53-.37-21.73.61-6.54.89-12.92,2.74-18.93,5.48-3.31,1.53-6.51,3.28-9.58,5.23-2.92,2.05-5.71,4.29-8.34,6.71-4.17,3.86-7.8,8.27-10.78,13.1-2.95,4.71-5.21,9.81-6.7,15.16-.63,2.05-1.09,4.14-1.38,6.27-.26,1.84-.35,3.67-.44,5.51-.09,1.84-.21,3.67-.17,5.51.06,2.31.3,4.61.72,6.88.64,3.63,1.54,7.22,2.69,10.72.76,2.22,1.68,4.38,2.74,6.47,1.65,3.32,3.52,6.53,5.59,9.6,1.36,1.99,2.86,3.88,4.47,5.66,2.48,2.78,5.13,5.4,7.93,7.86,4.69,3.9,9.77,7.3,15.16,10.14,4.28,2.34,8.76,4.27,13.39,5.78l.17.06c6.44,2.16,13.09,3.65,19.82,4.45,2.24.27,4.5.46,6.76.58,8.71.8,17.89,1.42,27.46,1.81h.01c3.93.16,7.9.29,11.96.37,15.32.28,29.72.65,43.06-.18v-.46"></path><path class="cls-3" d="m196.02,215.25c0-1.29-.03-2.61-.06-3.95-.01-.35-.01-.7-.03-1.05v-.13c-.02-.57-.04-1.14-.06-1.72,0-.18-.02-.36-.02-.54-.02-.47-.04-.94-.07-1.42,0-.21-.02-.42-.04-.64-.03-.47-.05-.93-.08-1.4,0-.15-.02-.3-.03-.45-.08-1.2-.18-2.42-.28-3.65-.4-4.5-.95-8.74-1.6-12.73-.27-1.67-.55-3.31-.85-4.88h0c-.35-2.06-1.11-5.89-2.46-10.85-3.69-13.44-11.85-35.26-28.79-52.9-8.89-9.07-19.34-16.46-30.85-21.83l-.04-.02h0s-.05,0-.05,0c-1.58,3.03-3.17,6.28-4.71,9.74-.04.08-.07.16-.11.24-.44.99-.88,2.01-1.32,3.04-.09.22-.19.43-.28.65-.52,1.23-1.01,2.47-1.5,3.71-.11.29-.23.57-.34.86-.45,1.16-.88,2.33-1.31,3.5-.13.36-.27.71-.39,1.07-.38,1.07-.75,2.15-1.11,3.24-.15.46-.31.91-.46,1.36-.26.79-.5,1.58-.74,2.38-.22.73-.46,1.45-.68,2.17h0s.02.01.02.01h.03c14.33,6.98,25.91,18.57,32.86,32.91,3.19,6.6,5.68,13.51,7.44,20.63.15.61.29,1.23.43,1.84.06.28.14.56.2.85.87,4.6,1.64,9.56,2.23,14.87.13,1.21.24,2.41.35,3.62.02.19.03.37.05.56.1,1.21.19,2.42.28,3.63,0,.1.01.2.02.3.05.86.08,1.73.13,2.6.09,1.82.15,3.65.19,5.48,0,.17.01.35.02.46h0c.02.84.05,1.67.05,2.51h0c-.42,16.8-3.13,34.18-12.05,48.71-1.45,2.29-3.12,4.43-4.99,6.4-2.87,3.33-7,5.33-11.39,5.51-2.4-.19-4.7-1.01-6.67-2.37-3.54-2.63-6.43-6.03-8.45-9.95l-.08-.15c-3.72-7.07-12.46-9.79-19.53-6.07-.51.27-1,.57-1.48.89l-4.2,2.92c-6.08,4.21-7.98,12.36-4.37,18.82,5.08,9.6,12.67,17.65,21.95,23.29,4.96,2.96,10.45,4.93,16.17,5.79,6.01.93,12.15.68,18.07-.73.93-.22,1.85-.46,2.77-.74,14.34-4.74,25.64-16.07,32.8-29.11,11.15-19.93,15.25-43.08,15.5-65.72v-.25c0-.42,0-.86,0-1.29"></path></g></svg>